<?xml version="1.0" standalone="no"?><!DOCTYPE svg PUBLIC "-//W3C//DTD SVG 1.1//EN" "http://www.w3.org/Graphics/SVG/1.1/DTD/svg11.dtd"><svg t="1602462273620" class="icon" viewBox="0 0 1024 1024" version="1.1" xmlns="http://www.w3.org/2000/svg" p-id="2567" xmlns:xlink="http://www.w3.org/1999/xlink" width="200" height="200"><defs><style type="text/css"></style></defs><path d="M0 0m153.6 0l716.8 0q153.6 0 153.6 153.6l0 716.8q0 153.6-153.6 153.6l-716.8 0q-153.6 0-153.6-153.6l0-716.8q0-153.6 153.6-153.6Z" fill="#F55F5F" p-id="2568"></path><path d="M810.5728 272.384l-28.5184-0.4608c-0.7168 0-64.5632-1.408-130.56-28.4928-67.7376-27.8016-111.3344-59.776-111.7184-60.16l-17.2288-12.5952-17.1008 12.5952c-0.384 0.3072-44.032 32.256-111.6928 60.16-65.9456 27.0848-129.8688 28.4928-130.4832 28.4928l-28.5952 0.4864v293.9904c0 147.6096 187.2896 303.6928 287.9488 303.6928 100.7104 0 288-156.0832 288-303.6928 0.1024 0.1536-0.0512-293.9904-0.0512-293.9904z m-283.3408 238.7712l82.3552-79.488a18.432 18.432 0 0 1 25.2416 0 16.896 16.896 0 0 1 0 24.3712l-134.5536 129.8944a18.1248 18.1248 0 0 1-12.6464 4.992 18.0736 18.0736 0 0 1-12.5952-4.992l-64.512-62.2848a16.896 16.896 0 0 1 0-24.3712 18.432 18.432 0 0 1 25.2416 0l51.9168 50.1248 39.552-38.2464z" fill="#FFFFFF" p-id="2569"></path></svg>